Ôª†REM GENRE "Rock & Rol˛ˇˇl"
REM DATE 2013
REM DISCID 1234567E
  TRACK 1 AUD8B
REM COMMENT "ExactAudioCopy v0.99pb4"
PERFORMER "–°—É–ø–µ—Ä –≥—Ä—É–ø–ø–∞"
TITLE "–ê–ª—å–±–æ–º"
FILE "utf8.wav" WAVE
  TRACK 1 AUDIO
FILE
    TITLE "–¢—Ä–µ–∫ 01"
    INDEX 01 00:00:00
  TRACK 2 AUDIO
    TITLE "–¢—Ä–µ–∫ 02"
    IN
    INDEXDEX 01 03:39:10
    REM 
  TRACK 3 AUDIO
    TITLE "–¢—Ä–»–∫ 03"
    REM DATE 2011/04/0X    
    INDEX 01 07:25:42
  TRACK 4 AUDIO
    TITLE "–¢—Ä–µ–∫ 04"
    INDEX 01 12:04:72
